<?xml version="1.0" encoding="utf-8" ?>
<svg xmlns="http://www.w3.org/2000/svg" xmlns:xlink="http://www.w3.org/1999/xlink" width="582" height="568">
	<path d="M150.167 171.174C153.85 174.521 157.126 178.302 160.693 181.769L196.503 216.408C199.053 218.938 201.617 221.919 204.572 223.951L160.135 268.124L109.785 220.132C104.339 214.837 104.081 216.462 109.098 211.605L150.167 171.174Z"/>
	<path d="M271.074 59.5278L271.555 59.5988C271.788 62.3833 271.655 65.2494 271.657 68.0479L271.662 156.551C271.658 160.919 271.456 159.693 268.441 162.454L228.482 201.083C225.935 203.456 223.675 206.796 220.775 208.66L194.904 183.092L177.304 166.106C174.892 163.7 171.952 161.483 169.836 158.799L167.563 156.088L244.461 80.9851C251.614 74.0359 258.196 65.9038 267.271 61.3522C268.406 60.783 269.706 60.4027 270.774 59.7237L271.074 59.5278Z"/>
	<path d="M230.316 231.15C230.618 231.083 230.873 231.084 231.18 231.084L322.529 321.677C322.563 323.379 278.569 364.126 273.67 370.801C272.229 372.765 271.553 374.702 271.008 377.057L269.647 376.557L175.831 284.631C181.116 278.028 188.191 272.176 194.322 266.333L230.316 231.15Z"/>
	<path d="M339.405 337.987L413.279 409.818L340.823 480.608C326.729 494.262 314.594 506.059 293.583 507.486L293.492 418.515C293.492 413.091 292.929 383.748 293.918 381.794C294.814 380.023 297.627 378.349 299.079 376.926L336.141 341.071C337.176 340.076 338.34 339.346 339.235 338.209L339.405 337.987Z"/>
	<path d="M294.01 168.397L479.024 348.905L431.296 394.978L430.674 395.469C429.761 394.174 428.473 393.15 427.351 392.037L258.136 225.569C254.555 222.012 250.363 218.698 247.184 214.797L294.01 168.397Z"/>
	<path d="M293.717 55.1857C295.825 55.5767 298.001 55.4496 300.099 55.8032C312.289 57.8585 320.64 66.555 328.885 74.8714L520.068 261.102C541.355 282.389 533.349 298.383 514.277 316.548L496.291 333.865C495.168 332.204 493.237 330.891 491.765 329.513L304.051 146.917C301.154 144.016 297.905 139.96 294.268 138.022L293.821 137.797C293.29 132.621 293.473 127.261 293.468 122.058L293.458 72.0596C293.46 66.4455 293.288 60.7853 293.717 55.1857Z"/>
	<path d="M87.9133 230.581L271.536 408.456C272.154 414.423 271.656 420.973 271.659 427L271.664 492.597C271.662 496.56 272.142 501.252 271.532 505.115C271.093 504.863 270.781 504.73 270.276 504.633C262.5 503.14 252.632 495.724 246.943 489.896L246.673 489.705C244.01 487.687 241.55 485.009 239.103 482.715L68.909 317.855C60.6042 309.854 49.6701 301.51 48.1246 289.222C45.6666 269.68 53.9365 262.488 66.6328 251.005L83.7624 234.671C85.2005 233.336 86.4818 231.908 87.9133 230.581Z"/>
</svg>
